
<svg width="1225px" height="538px" viewBox="0 0 1225 538" version="1.1" xmlns="http://www.w3.org/2000/svg" xmlns:xlink="http://www.w3.org/1999/xlink">
  <path d="M260.21,530.67 C260.21,530.67 666.54,519.34 669.87,519.34 C673.2,519.34 812.66,515.34 850.69,510.01 C888.72,504.68 1090.21,498.67 1130.25,494.67 C1170.29,490.67 1198.97,488.67 1198.97,488.67 L1216.32,450.67 C1216.32,450.67 1217.65,446.67 1219.65,424.67 C1221.65,402.67 1225,338 1225,338 L1209,264 L1211,91.86 C1211,91.86 1213,71.32 1189.84,70 L1166,70 L1166,39 L1192.65,39 C1192.65,39 1211,37.53 1211,18.2 L1211,0 L796,0 L796,68 L786.65,68 L782.65,159.33 C783.32,176 775.31,181.33 775.31,181.33 C775.31,181.33 379.66,350.66 340.31,368.66 C300.96,386.66 265.59,378.66 256.25,378.66 L234.9,389.33 L260.9,392 L129.44,447.34 L49.37,454.67 L0,539.34 L260.21,530.67 Z" class="map__ground"></path>
  <polygon class="map__space" data-space="10" points="919 112 902 112 902 104 878 104 878 27 908 27 903 20 929 4 948.75 35 981 35 981 51 1012 51 1012 76 1015 76 1015 97 1010 97 1010 102 983 87 983 80 942 80 942 105 919 105"></polygon>
  <rect class="map__space" data-space="9" x="623" y="316" width="132" height="78"></rect>
  <polygon class="map__space" data-space="8" points="772 305 811 305 811 325 772 325"></polygon>
  <polygon class="map__space" data-space="7" points="813 305 833 305 833 325 813 325"></polygon>
  <polygon class="map__space" data-space="6" points="772 327 811 327 811 392 772 392"></polygon>
  <polygon class="map__space" data-space="5" points="813 327.01 833 327 833 392 813 392"></polygon>
  <polygon class="map__space" data-space="4" points="876 317 923 317 923 357 927 357 927 378 924 378 924 403 876 403"></polygon>
  <polygon class="map__space" data-space="3" points="953 301 986 301 986 369 953 369"></polygon>
  <polygon class="map__space" data-space="2" points="953 371 1020 371 1020 395 953 395"></polygon>
  <polygon class="map__space" data-space="1" points="988 301 1020 301 1020 369 988 369"></polygon>
  <g class="map__feature map__feature__parking" transform="translate(621.000000, 403.000000)" fill-rule="nonzero">
      <path d="M4,0 L127,0 C129.209139,-4.05812251e-16 131,1.790861 131,4 L131,61 C131,63.209139 129.209139,65 127,65 L4,65 C1.790861,65 2.705415e-16,63.209139 0,61 L0,4 C-2.705415e-16,1.790861 1.790861,4.05812251e-16 4,0 Z"></path>
      <path d="M26.5357143,6 L8.46428571,6 C7.10379464,6 6,7.10379464 6,8.46428571 L6,26.5357143 C6,27.8962054 7.10379464,29 8.46428571,29 L26.5357143,29 C27.8962054,29 29,27.8962054 29,26.5357143 L29,8.46428571 C29,7.10379464 27.8962054,6 26.5357143,6 Z M18.3214286,20.7857143 L15.8571429,20.7857143 L15.8571429,23.25 C15.8571429,23.7017857 15.4875,24.0714286 15.0357143,24.0714286 L13.3928571,24.0714286 C12.9410714,24.0714286 12.5714286,23.7017857 12.5714286,23.25 L12.5714286,11.75 C12.5714286,11.2982143 12.9410714,10.9285714 13.3928571,10.9285714 L18.3214286,10.9285714 C21.0372768,10.9285714 23.25,13.1412946 23.25,15.8571429 C23.25,18.5729911 21.0372768,20.7857143 18.3214286,20.7857143 Z M18.3214286,14.2142857 L15.8571429,14.2142857 L15.8571429,17.5 L18.3214286,17.5 C19.225,17.5 19.9642857,16.7607143 19.9642857,15.8571429 C19.9642857,14.9535714 19.225,14.2142857 18.3214286,14.2142857 Z" class="map__feature map__feature--label"></path>
      <path d="M58.3899672,13.5416667 L55.3496896,13.5416667 L54.5046884,11.4833333 C53.6363279,9.36710938 51.5639422,8 49.2244468,8 L42.7752193,8 C40.4362317,8 38.3633383,9.36710938 37.4944699,11.4833333 L36.6494687,13.5416667 L33.609699,13.5416667 C33.2130969,13.5416667 32.9221199,13.9048438 33.0186044,14.279401 L33.3232923,15.466901 C33.3908315,15.7311198 33.6345818,15.9166667 33.9143869,15.9166667 L34.933568,15.9166667 C34.2515748,16.4970573 33.8123164,17.3406771 33.8123164,18.2916667 L33.8123164,20.6666667 C33.8123164,21.4642708 34.1251294,22.1841927 34.6248175,22.7413281 L34.6248175,25.4166667 C34.6248175,26.2909635 35.3525138,27 36.2498198,27 L37.874822,27 C38.7721279,27 39.4998242,26.2909635 39.4998242,25.4166667 L39.4998242,23.8333333 L52.4998419,23.8333333 L52.4998419,25.4166667 C52.4998419,26.2909635 53.2275382,27 54.1248442,27 L55.7498464,27 C56.6471523,27 57.3748486,26.2909635 57.3748486,25.4166667 L57.3748486,22.7413281 C57.8745368,22.1846875 58.1873497,21.4647656 58.1873497,20.6666667 L58.1873497,18.2916667 C58.1873497,17.3406771 57.7480913,16.4970573 57.066606,15.9166667 L58.0857871,15.9166667 C58.3655921,15.9166667 58.6093425,15.7311198 58.6768816,15.466901 L58.9815695,14.279401 C59.0775462,13.9048438 58.7865693,13.5416667 58.3899672,13.5416667 Z M40.5118959,12.6594531 C40.8820917,11.7579427 41.778382,11.1666667 42.7752193,11.1666667 L49.2244468,11.1666667 C50.2212841,11.1666667 51.1175744,11.7579427 51.4877702,12.6594531 L52.4998419,15.125 L39.4998242,15.125 L40.5118959,12.6594531 Z M37.874822,20.6567708 C36.8998206,20.6567708 36.2498198,20.0254167 36.2498198,19.0783854 C36.2498198,18.1313542 36.8998206,17.5 37.874822,17.5 C38.8498233,17.5 40.3123253,18.9205469 40.3123253,19.8675781 C40.3123253,20.8146094 38.8498233,20.6567708 37.874822,20.6567708 Z M54.1248442,20.6567708 C53.1498428,20.6567708 51.6873408,20.8146094 51.6873408,19.8675781 C51.6873408,18.9205469 53.1498428,17.5 54.1248442,17.5 C55.0998455,17.5 55.7498464,18.1313542 55.7498464,19.0783854 C55.7498464,20.0254167 55.0998455,20.6567708 54.1248442,20.6567708 L54.1248442,20.6567708 Z"></path>
  </g>
  <g class="map__feature map__feature__parking" transform="translate(770.000000, 401.000000)" fill-rule="nonzero">
      <path d="M4,0 L60,0 C62.209139,-4.05812251e-16 64,1.790861 64,4 L64,61 C64,63.209139 62.209139,65 60,65 L4,65 C1.790861,65 2.705415e-16,63.209139 0,61 L0,4 C-2.705415e-16,1.790861 1.790861,4.05812251e-16 4,0 Z"></path>
      <path d="M26.5357143,6 L8.46428571,6 C7.10379464,6 6,7.10379464 6,8.46428571 L6,26.5357143 C6,27.8962054 7.10379464,29 8.46428571,29 L26.5357143,29 C27.8962054,29 29,27.8962054 29,26.5357143 L29,8.46428571 C29,7.10379464 27.8962054,6 26.5357143,6 Z M18.3214286,20.7857143 L15.8571429,20.7857143 L15.8571429,23.25 C15.8571429,23.7017857 15.4875,24.0714286 15.0357143,24.0714286 L13.3928571,24.0714286 C12.9410714,24.0714286 12.5714286,23.7017857 12.5714286,23.25 L12.5714286,11.75 C12.5714286,11.2982143 12.9410714,10.9285714 13.3928571,10.9285714 L18.3214286,10.9285714 C21.0372768,10.9285714 23.25,13.1412946 23.25,15.8571429 C23.25,18.5729911 21.0372768,20.7857143 18.3214286,20.7857143 Z M18.3214286,14.2142857 L15.8571429,14.2142857 L15.8571429,17.5 L18.3214286,17.5 C19.225,17.5 19.9642857,16.7607143 19.9642857,15.8571429 C19.9642857,14.9535714 19.225,14.2142857 18.3214286,14.2142857 Z" class="map__feature map__feature--label"></path>
      <path d="M58.3899672,13.5416667 L55.3496896,13.5416667 L54.5046884,11.4833333 C53.6363279,9.36710938 51.5639422,8 49.2244468,8 L42.7752193,8 C40.4362317,8 38.3633383,9.36710938 37.4944699,11.4833333 L36.6494687,13.5416667 L33.609699,13.5416667 C33.2130969,13.5416667 32.9221199,13.9048438 33.0186044,14.279401 L33.3232923,15.466901 C33.3908315,15.7311198 33.6345818,15.9166667 33.9143869,15.9166667 L34.933568,15.9166667 C34.2515748,16.4970573 33.8123164,17.3406771 33.8123164,18.2916667 L33.8123164,20.6666667 C33.8123164,21.4642708 34.1251294,22.1841927 34.6248175,22.7413281 L34.6248175,25.4166667 C34.6248175,26.2909635 35.3525138,27 36.2498198,27 L37.874822,27 C38.7721279,27 39.4998242,26.2909635 39.4998242,25.4166667 L39.4998242,23.8333333 L52.4998419,23.8333333 L52.4998419,25.4166667 C52.4998419,26.2909635 53.2275382,27 54.1248442,27 L55.7498464,27 C56.6471523,27 57.3748486,26.2909635 57.3748486,25.4166667 L57.3748486,22.7413281 C57.8745368,22.1846875 58.1873497,21.4647656 58.1873497,20.6666667 L58.1873497,18.2916667 C58.1873497,17.3406771 57.7480913,16.4970573 57.066606,15.9166667 L58.0857871,15.9166667 C58.3655921,15.9166667 58.6093425,15.7311198 58.6768816,15.466901 L58.9815695,14.279401 C59.0775462,13.9048438 58.7865693,13.5416667 58.3899672,13.5416667 Z M40.5118959,12.6594531 C40.8820917,11.7579427 41.778382,11.1666667 42.7752193,11.1666667 L49.2244468,11.1666667 C50.2212841,11.1666667 51.1175744,11.7579427 51.4877702,12.6594531 L52.4998419,15.125 L39.4998242,15.125 L40.5118959,12.6594531 Z M37.874822,20.6567708 C36.8998206,20.6567708 36.2498198,20.0254167 36.2498198,19.0783854 C36.2498198,18.1313542 36.8998206,17.5 37.874822,17.5 C38.8498233,17.5 40.3123253,18.9205469 40.3123253,19.8675781 C40.3123253,20.8146094 38.8498233,20.6567708 37.874822,20.6567708 Z M54.1248442,20.6567708 C53.1498428,20.6567708 51.6873408,20.8146094 51.6873408,19.8675781 C51.6873408,18.9205469 53.1498428,17.5 54.1248442,17.5 C55.0998455,17.5 55.7498464,18.1313542 55.7498464,19.0783854 C55.7498464,20.0254167 55.0998455,20.6567708 54.1248442,20.6567708 L54.1248442,20.6567708 Z"></path>
  </g>
  <g class="map__feature map__feature__parking" transform="translate(1032.000000, 281.000000)" fill-rule="nonzero">
      <path d="M4,0 L158,0 C160.209139,-4.05812251e-16 162,1.790861 162,4 L162,30 C162,32.209139 160.209139,34 158,34 L4,34 C1.790861,34 2.705415e-16,32.209139 0,30 L0,4 C-2.705415e-16,1.790861 1.790861,4.05812251e-16 4,0 Z"></path>
      <path d="M25.5357143,5 L7.46428571,5 C6.10379464,5 5,6.10379464 5,7.46428571 L5,25.5357143 C5,26.8962054 6.10379464,28 7.46428571,28 L25.5357143,28 C26.8962054,28 28,26.8962054 28,25.5357143 L28,7.46428571 C28,6.10379464 26.8962054,5 25.5357143,5 Z M17.3214286,19.7857143 L14.8571429,19.7857143 L14.8571429,22.25 C14.8571429,22.7017857 14.4875,23.0714286 14.0357143,23.0714286 L12.3928571,23.0714286 C11.9410714,23.0714286 11.5714286,22.7017857 11.5714286,22.25 L11.5714286,10.75 C11.5714286,10.2982143 11.9410714,9.92857143 12.3928571,9.92857143 L17.3214286,9.92857143 C20.0372768,9.92857143 22.25,12.1412946 22.25,14.8571429 C22.25,17.5729911 20.0372768,19.7857143 17.3214286,19.7857143 Z M17.3214286,13.2142857 L14.8571429,13.2142857 L14.8571429,16.5 L17.3214286,16.5 C18.225,16.5 18.9642857,15.7607143 18.9642857,14.8571429 C18.9642857,13.9535714 18.225,13.2142857 17.3214286,13.2142857 Z" class="map__feature map__feature--label"></path>
      <path d="M57.3899672,12.5416667 L54.3496896,12.5416667 L53.5046884,10.4833333 C52.6363279,8.36710938 50.5639422,7 48.2244468,7 L41.7752193,7 C39.4362317,7 37.3633383,8.36710938 36.4944699,10.4833333 L35.6494687,12.5416667 L32.609699,12.5416667 C32.2130969,12.5416667 31.9221199,12.9048438 32.0186044,13.279401 L32.3232923,14.466901 C32.3908315,14.7311198 32.6345818,14.9166667 32.9143869,14.9166667 L33.933568,14.9166667 C33.2515748,15.4970573 32.8123164,16.3406771 32.8123164,17.2916667 L32.8123164,19.6666667 C32.8123164,20.4642708 33.1251294,21.1841927 33.6248175,21.7413281 L33.6248175,24.4166667 C33.6248175,25.2909635 34.3525138,26 35.2498198,26 L36.874822,26 C37.7721279,26 38.4998242,25.2909635 38.4998242,24.4166667 L38.4998242,22.8333333 L51.4998419,22.8333333 L51.4998419,24.4166667 C51.4998419,25.2909635 52.2275382,26 53.1248442,26 L54.7498464,26 C55.6471523,26 56.3748486,25.2909635 56.3748486,24.4166667 L56.3748486,21.7413281 C56.8745368,21.1846875 57.1873497,20.4647656 57.1873497,19.6666667 L57.1873497,17.2916667 C57.1873497,16.3406771 56.7480913,15.4970573 56.066606,14.9166667 L57.0857871,14.9166667 C57.3655921,14.9166667 57.6093425,14.7311198 57.6768816,14.466901 L57.9815695,13.279401 C58.0775462,12.9048438 57.7865693,12.5416667 57.3899672,12.5416667 Z M39.5118959,11.6594531 C39.8820917,10.7579427 40.778382,10.1666667 41.7752193,10.1666667 L48.2244468,10.1666667 C49.2212841,10.1666667 50.1175744,10.7579427 50.4877702,11.6594531 L51.4998419,14.125 L38.4998242,14.125 L39.5118959,11.6594531 Z M36.874822,19.6567708 C35.8998206,19.6567708 35.2498198,19.0254167 35.2498198,18.0783854 C35.2498198,17.1313542 35.8998206,16.5 36.874822,16.5 C37.8498233,16.5 39.3123253,17.9205469 39.3123253,18.8675781 C39.3123253,19.8146094 37.8498233,19.6567708 36.874822,19.6567708 Z M53.1248442,19.6567708 C52.1498428,19.6567708 50.6873408,19.8146094 50.6873408,18.8675781 C50.6873408,17.9205469 52.1498428,16.5 53.1248442,16.5 C54.0998455,16.5 54.7498464,17.1313542 54.7498464,18.0783854 C54.7498464,19.0254167 54.0998455,19.6567708 53.1248442,19.6567708 L53.1248442,19.6567708 Z"></path>
  </g>
  <g class="map__feature map__feature__parking" transform="translate(1056.000000, 414.000000)" fill-rule="nonzero">
      <path d="M4,0 L99,0 C101.209139,-4.05812251e-16 103,1.790861 103,4 L103,30 C103,32.209139 101.209139,34 99,34 L4,34 C1.790861,34 2.705415e-16,32.209139 0,30 L0,4 C-7.1463071e-16,1.790861 1.790861,4.05812251e-16 4,0 Z"></path>
      <path d="M25.5357143,5 L7.46428571,5 C6.10379464,5 5,6.10379464 5,7.46428571 L5,25.5357143 C5,26.8962054 6.10379464,28 7.46428571,28 L25.5357143,28 C26.8962054,28 28,26.8962054 28,25.5357143 L28,7.46428571 C28,6.10379464 26.8962054,5 25.5357143,5 Z M17.3214286,19.7857143 L14.8571429,19.7857143 L14.8571429,22.25 C14.8571429,22.7017857 14.4875,23.0714286 14.0357143,23.0714286 L12.3928571,23.0714286 C11.9410714,23.0714286 11.5714286,22.7017857 11.5714286,22.25 L11.5714286,10.75 C11.5714286,10.2982143 11.9410714,9.92857143 12.3928571,9.92857143 L17.3214286,9.92857143 C20.0372768,9.92857143 22.25,12.1412946 22.25,14.8571429 C22.25,17.5729911 20.0372768,19.7857143 17.3214286,19.7857143 Z M17.3214286,13.2142857 L14.8571429,13.2142857 L14.8571429,16.5 L17.3214286,16.5 C18.225,16.5 18.9642857,15.7607143 18.9642857,14.8571429 C18.9642857,13.9535714 18.225,13.2142857 17.3214286,13.2142857 Z" class="map__feature map__feature--label"></path>
      <path d="M57.3899672,12.5416667 L54.3496896,12.5416667 L53.5046884,10.4833333 C52.6363279,8.36710938 50.5639422,7 48.2244468,7 L41.7752193,7 C39.4362317,7 37.3633383,8.36710938 36.4944699,10.4833333 L35.6494687,12.5416667 L32.609699,12.5416667 C32.2130969,12.5416667 31.9221199,12.9048438 32.0186044,13.279401 L32.3232923,14.466901 C32.3908315,14.7311198 32.6345818,14.9166667 32.9143869,14.9166667 L33.933568,14.9166667 C33.2515748,15.4970573 32.8123164,16.3406771 32.8123164,17.2916667 L32.8123164,19.6666667 C32.8123164,20.4642708 33.1251294,21.1841927 33.6248175,21.7413281 L33.6248175,24.4166667 C33.6248175,25.2909635 34.3525138,26 35.2498198,26 L36.874822,26 C37.7721279,26 38.4998242,25.2909635 38.4998242,24.4166667 L38.4998242,22.8333333 L51.4998419,22.8333333 L51.4998419,24.4166667 C51.4998419,25.2909635 52.2275382,26 53.1248442,26 L54.7498464,26 C55.6471523,26 56.3748486,25.2909635 56.3748486,24.4166667 L56.3748486,21.7413281 C56.8745368,21.1846875 57.1873497,20.4647656 57.1873497,19.6666667 L57.1873497,17.2916667 C57.1873497,16.3406771 56.7480913,15.4970573 56.066606,14.9166667 L57.0857871,14.9166667 C57.3655921,14.9166667 57.6093425,14.7311198 57.6768816,14.466901 L57.9815695,13.279401 C58.0775462,12.9048438 57.7865693,12.5416667 57.3899672,12.5416667 Z M39.5118959,11.6594531 C39.8820917,10.7579427 40.778382,10.1666667 41.7752193,10.1666667 L48.2244468,10.1666667 C49.2212841,10.1666667 50.1175744,10.7579427 50.4877702,11.6594531 L51.4998419,14.125 L38.4998242,14.125 L39.5118959,11.6594531 Z M36.874822,19.6567708 C35.8998206,19.6567708 35.2498198,19.0254167 35.2498198,18.0783854 C35.2498198,17.1313542 35.8998206,16.5 36.874822,16.5 C37.8498233,16.5 39.3123253,17.9205469 39.3123253,18.8675781 C39.3123253,19.8146094 37.8498233,19.6567708 36.874822,19.6567708 Z M53.1248442,19.6567708 C52.1498428,19.6567708 50.6873408,19.8146094 50.6873408,18.8675781 C50.6873408,17.9205469 52.1498428,16.5 53.1248442,16.5 C54.0998455,16.5 54.7498464,17.1313542 54.7498464,18.0783854 C54.7498464,19.0254167 54.0998455,19.6567708 53.1248442,19.6567708 L53.1248442,19.6567708 Z"></path>
  </g>
  <g class="map__feature map__feature__parking" transform="translate(945.000000, 424.000000)" fill-rule="nonzero">
      <path d="M4,0 L86,0 C88.209139,-4.05812251e-16 90,1.790861 90,4 L90,30 C90,32.209139 88.209139,34 86,34 L4,34 C1.790861,34 2.705415e-16,32.209139 0,30 L0,4 C-2.705415e-16,1.790861 1.790861,4.05812251e-16 4,0 Z"></path>
      <path d="M25.5357143,5 L7.46428571,5 C6.10379464,5 5,6.10379464 5,7.46428571 L5,25.5357143 C5,26.8962054 6.10379464,28 7.46428571,28 L25.5357143,28 C26.8962054,28 28,26.8962054 28,25.5357143 L28,7.46428571 C28,6.10379464 26.8962054,5 25.5357143,5 Z M17.3214286,19.7857143 L14.8571429,19.7857143 L14.8571429,22.25 C14.8571429,22.7017857 14.4875,23.0714286 14.0357143,23.0714286 L12.3928571,23.0714286 C11.9410714,23.0714286 11.5714286,22.7017857 11.5714286,22.25 L11.5714286,10.75 C11.5714286,10.2982143 11.9410714,9.92857143 12.3928571,9.92857143 L17.3214286,9.92857143 C20.0372768,9.92857143 22.25,12.1412946 22.25,14.8571429 C22.25,17.5729911 20.0372768,19.7857143 17.3214286,19.7857143 Z M17.3214286,13.2142857 L14.8571429,13.2142857 L14.8571429,16.5 L17.3214286,16.5 C18.225,16.5 18.9642857,15.7607143 18.9642857,14.8571429 C18.9642857,13.9535714 18.225,13.2142857 17.3214286,13.2142857 Z" class="map__feature map__feature--label"></path>
      <path d="M57.3899672,12.5416667 L54.3496896,12.5416667 L53.5046884,10.4833333 C52.6363279,8.36710938 50.5639422,7 48.2244468,7 L41.7752193,7 C39.4362317,7 37.3633383,8.36710938 36.4944699,10.4833333 L35.6494687,12.5416667 L32.609699,12.5416667 C32.2130969,12.5416667 31.9221199,12.9048438 32.0186044,13.279401 L32.3232923,14.466901 C32.3908315,14.7311198 32.6345818,14.9166667 32.9143869,14.9166667 L33.933568,14.9166667 C33.2515748,15.4970573 32.8123164,16.3406771 32.8123164,17.2916667 L32.8123164,19.6666667 C32.8123164,20.4642708 33.1251294,21.1841927 33.6248175,21.7413281 L33.6248175,24.4166667 C33.6248175,25.2909635 34.3525138,26 35.2498198,26 L36.874822,26 C37.7721279,26 38.4998242,25.2909635 38.4998242,24.4166667 L38.4998242,22.8333333 L51.4998419,22.8333333 L51.4998419,24.4166667 C51.4998419,25.2909635 52.2275382,26 53.1248442,26 L54.7498464,26 C55.6471523,26 56.3748486,25.2909635 56.3748486,24.4166667 L56.3748486,21.7413281 C56.8745368,21.1846875 57.1873497,20.4647656 57.1873497,19.6666667 L57.1873497,17.2916667 C57.1873497,16.3406771 56.7480913,15.4970573 56.066606,14.9166667 L57.0857871,14.9166667 C57.3655921,14.9166667 57.6093425,14.7311198 57.6768816,14.466901 L57.9815695,13.279401 C58.0775462,12.9048438 57.7865693,12.5416667 57.3899672,12.5416667 Z M39.5118959,11.6594531 C39.8820917,10.7579427 40.778382,10.1666667 41.7752193,10.1666667 L48.2244468,10.1666667 C49.2212841,10.1666667 50.1175744,10.7579427 50.4877702,11.6594531 L51.4998419,14.125 L38.4998242,14.125 L39.5118959,11.6594531 Z M36.874822,19.6567708 C35.8998206,19.6567708 35.2498198,19.0254167 35.2498198,18.0783854 C35.2498198,17.1313542 35.8998206,16.5 36.874822,16.5 C37.8498233,16.5 39.3123253,17.9205469 39.3123253,18.8675781 C39.3123253,19.8146094 37.8498233,19.6567708 36.874822,19.6567708 Z M53.1248442,19.6567708 C52.1498428,19.6567708 50.6873408,19.8146094 50.6873408,18.8675781 C50.6873408,17.9205469 52.1498428,16.5 53.1248442,16.5 C54.0998455,16.5 54.7498464,17.1313542 54.7498464,18.0783854 C54.7498464,19.0254167 54.0998455,19.6567708 53.1248442,19.6567708 L53.1248442,19.6567708 Z"></path>
  </g>
  <g class="map__feature map__feature__parking" transform="translate(869.000000, 424.000000)" fill-rule="nonzero">
      <path d="M4,0 L58,0 C60.209139,-4.05812251e-16 62,1.790861 62,4 L62,30 C62,32.209139 60.209139,34 58,34 L4,34 C1.790861,34 2.705415e-16,32.209139 0,30 L0,4 C-2.705415e-16,1.790861 1.790861,4.05812251e-16 4,0 Z"></path>
      <path d="M25.5357143,5 L7.46428571,5 C6.10379464,5 5,6.10379464 5,7.46428571 L5,25.5357143 C5,26.8962054 6.10379464,28 7.46428571,28 L25.5357143,28 C26.8962054,28 28,26.8962054 28,25.5357143 L28,7.46428571 C28,6.10379464 26.8962054,5 25.5357143,5 Z M17.3214286,19.7857143 L14.8571429,19.7857143 L14.8571429,22.25 C14.8571429,22.7017857 14.4875,23.0714286 14.0357143,23.0714286 L12.3928571,23.0714286 C11.9410714,23.0714286 11.5714286,22.7017857 11.5714286,22.25 L11.5714286,10.75 C11.5714286,10.2982143 11.9410714,9.92857143 12.3928571,9.92857143 L17.3214286,9.92857143 C20.0372768,9.92857143 22.25,12.1412946 22.25,14.8571429 C22.25,17.5729911 20.0372768,19.7857143 17.3214286,19.7857143 Z M17.3214286,13.2142857 L14.8571429,13.2142857 L14.8571429,16.5 L17.3214286,16.5 C18.225,16.5 18.9642857,15.7607143 18.9642857,14.8571429 C18.9642857,13.9535714 18.225,13.2142857 17.3214286,13.2142857 Z" class="map__feature map__feature--label"></path>
      <path d="M57.3899672,12.5416667 L54.3496896,12.5416667 L53.5046884,10.4833333 C52.6363279,8.36710938 50.5639422,7 48.2244468,7 L41.7752193,7 C39.4362317,7 37.3633383,8.36710938 36.4944699,10.4833333 L35.6494687,12.5416667 L32.609699,12.5416667 C32.2130969,12.5416667 31.9221199,12.9048438 32.0186044,13.279401 L32.3232923,14.466901 C32.3908315,14.7311198 32.6345818,14.9166667 32.9143869,14.9166667 L33.933568,14.9166667 C33.2515748,15.4970573 32.8123164,16.3406771 32.8123164,17.2916667 L32.8123164,19.6666667 C32.8123164,20.4642708 33.1251294,21.1841927 33.6248175,21.7413281 L33.6248175,24.4166667 C33.6248175,25.2909635 34.3525138,26 35.2498198,26 L36.874822,26 C37.7721279,26 38.4998242,25.2909635 38.4998242,24.4166667 L38.4998242,22.8333333 L51.4998419,22.8333333 L51.4998419,24.4166667 C51.4998419,25.2909635 52.2275382,26 53.1248442,26 L54.7498464,26 C55.6471523,26 56.3748486,25.2909635 56.3748486,24.4166667 L56.3748486,21.7413281 C56.8745368,21.1846875 57.1873497,20.4647656 57.1873497,19.6666667 L57.1873497,17.2916667 C57.1873497,16.3406771 56.7480913,15.4970573 56.066606,14.9166667 L57.0857871,14.9166667 C57.3655921,14.9166667 57.6093425,14.7311198 57.6768816,14.466901 L57.9815695,13.279401 C58.0775462,12.9048438 57.7865693,12.5416667 57.3899672,12.5416667 Z M39.5118959,11.6594531 C39.8820917,10.7579427 40.778382,10.1666667 41.7752193,10.1666667 L48.2244468,10.1666667 C49.2212841,10.1666667 50.1175744,10.7579427 50.4877702,11.6594531 L51.4998419,14.125 L38.4998242,14.125 L39.5118959,11.6594531 Z M36.874822,19.6567708 C35.8998206,19.6567708 35.2498198,19.0254167 35.2498198,18.0783854 C35.2498198,17.1313542 35.8998206,16.5 36.874822,16.5 C37.8498233,16.5 39.3123253,17.9205469 39.3123253,18.8675781 C39.3123253,19.8146094 37.8498233,19.6567708 36.874822,19.6567708 Z M53.1248442,19.6567708 C52.1498428,19.6567708 50.6873408,19.8146094 50.6873408,18.8675781 C50.6873408,17.9205469 52.1498428,16.5 53.1248442,16.5 C54.0998455,16.5 54.7498464,17.1313542 54.7498464,18.0783854 C54.7498464,19.0254167 54.0998455,19.6567708 53.1248442,19.6567708 L53.1248442,19.6567708 Z"></path>
  </g>
  <g class="map__feature map__feature__parking" transform="translate(895.000000, 191.000000)" fill-rule="nonzero">
      <path d="M4,0 L307,0 C309.209139,-4.05812251e-16 311,1.790861 311,4 L311,48 C311,50.209139 309.209139,52 307,52 L4,52 C1.790861,52 2.705415e-16,50.209139 0,48 L0,4 C-2.705415e-16,1.790861 1.790861,4.05812251e-16 4,0 Z"></path>
      <path d="M26.5357143,6 L8.46428571,6 C7.10379464,6 6,7.10379464 6,8.46428571 L6,26.5357143 C6,27.8962054 7.10379464,29 8.46428571,29 L26.5357143,29 C27.8962054,29 29,27.8962054 29,26.5357143 L29,8.46428571 C29,7.10379464 27.8962054,6 26.5357143,6 Z M18.3214286,20.7857143 L15.8571429,20.7857143 L15.8571429,23.25 C15.8571429,23.7017857 15.4875,24.0714286 15.0357143,24.0714286 L13.3928571,24.0714286 C12.9410714,24.0714286 12.5714286,23.7017857 12.5714286,23.25 L12.5714286,11.75 C12.5714286,11.2982143 12.9410714,10.9285714 13.3928571,10.9285714 L18.3214286,10.9285714 C21.0372768,10.9285714 23.25,13.1412946 23.25,15.8571429 C23.25,18.5729911 21.0372768,20.7857143 18.3214286,20.7857143 Z M18.3214286,14.2142857 L15.8571429,14.2142857 L15.8571429,17.5 L18.3214286,17.5 C19.225,17.5 19.9642857,16.7607143 19.9642857,15.8571429 C19.9642857,14.9535714 19.225,14.2142857 18.3214286,14.2142857 Z" class="map__feature map__feature--label"></path>
      <path d="M58.3899672,13.5416667 L55.3496896,13.5416667 L54.5046884,11.4833333 C53.6363279,9.36710938 51.5639422,8 49.2244468,8 L42.7752193,8 C40.4362317,8 38.3633383,9.36710938 37.4944699,11.4833333 L36.6494687,13.5416667 L33.609699,13.5416667 C33.2130969,13.5416667 32.9221199,13.9048438 33.0186044,14.279401 L33.3232923,15.466901 C33.3908315,15.7311198 33.6345818,15.9166667 33.9143869,15.9166667 L34.933568,15.9166667 C34.2515748,16.4970573 33.8123164,17.3406771 33.8123164,18.2916667 L33.8123164,20.6666667 C33.8123164,21.4642708 34.1251294,22.1841927 34.6248175,22.7413281 L34.6248175,25.4166667 C34.6248175,26.2909635 35.3525138,27 36.2498198,27 L37.874822,27 C38.7721279,27 39.4998242,26.2909635 39.4998242,25.4166667 L39.4998242,23.8333333 L52.4998419,23.8333333 L52.4998419,25.4166667 C52.4998419,26.2909635 53.2275382,27 54.1248442,27 L55.7498464,27 C56.6471523,27 57.3748486,26.2909635 57.3748486,25.4166667 L57.3748486,22.7413281 C57.8745368,22.1846875 58.1873497,21.4647656 58.1873497,20.6666667 L58.1873497,18.2916667 C58.1873497,17.3406771 57.7480913,16.4970573 57.066606,15.9166667 L58.0857871,15.9166667 C58.3655921,15.9166667 58.6093425,15.7311198 58.6768816,15.466901 L58.9815695,14.279401 C59.0775462,13.9048438 58.7865693,13.5416667 58.3899672,13.5416667 Z M40.5118959,12.6594531 C40.8820917,11.7579427 41.778382,11.1666667 42.7752193,11.1666667 L49.2244468,11.1666667 C50.2212841,11.1666667 51.1175744,11.7579427 51.4877702,12.6594531 L52.4998419,15.125 L39.4998242,15.125 L40.5118959,12.6594531 Z M37.874822,20.6567708 C36.8998206,20.6567708 36.2498198,20.0254167 36.2498198,19.0783854 C36.2498198,18.1313542 36.8998206,17.5 37.874822,17.5 C38.8498233,17.5 40.3123253,18.9205469 40.3123253,19.8675781 C40.3123253,20.8146094 38.8498233,20.6567708 37.874822,20.6567708 Z M54.1248442,20.6567708 C53.1498428,20.6567708 51.6873408,20.8146094 51.6873408,19.8675781 C51.6873408,18.9205469 53.1498428,17.5 54.1248442,17.5 C55.0998455,17.5 55.7498464,18.1313542 55.7498464,19.0783854 C55.7498464,20.0254167 55.0998455,20.6567708 54.1248442,20.6567708 L54.1248442,20.6567708 Z"></path>
  </g>
</svg>