<svg width="2080" height="522" viewBox="0 0 2080 522" xmlns="http://www.w3.org/2000/svg">
  <g class="Level-1-Map" fill="none" fill-rule="evenodd">
    <g class="Final-Level-1-Map" transform="translate(-10 -9)">
      <path d="M835.614-588.695S789-597.066 789-642.532v-59.458s7.994-67.359 66.139-67.359h97.614s54.587-9.57 72.113 44.666l229.502 1.6s17.526-2 16.737 20.333c-.79 22.333.39 63.808.39 63.808l15.537 41.476a40.04 40.04 0 0 1 1.6 11.561c0 6.78-.8 128.017-.8 128.017s1.998 6-3.188 15.952c-5.186 9.95-12.35 29.503-12.35 29.503s-1.999 7.181-1.589 19.943c.41 12.762 0 34.695 0 34.695h-9.163V2.31s1.19 7.181 5.996 7.181h6.375s7.564 0 7.564 7.581v65.008s.8 8.371-5.176 8.371h-8.364l-3.207 873.773h28.288v-29.103h9.582s5.176.79 7.165 4c0 0 3.997 3.59-2.388 11.172-6.385 7.58-30.677 46.656-30.677 46.656s-3.587 9.57-3.187 19.142c.4 9.571 0 162.311 0 162.311s2.388 17.942-14.349 23.523v39.885s9.563-1.6 9.563 8.771v30.304h-74.522V1310h-42.238v-13.562h-15.138v-15.172h-95.226v14.762h-14.338v13.552h-166.55s-29.878-5.18-30.277-37.885c0 0 1.199-9.571 5.176-16.002v-44.666h89.65s13.94 4.39 13.94-17.142v-23.133H840.8v-41.875h-7.574v-15.532h6.734v-5.181h45.465l-13.49-30.194 39.76-18.062-10.752-6.751h-64.13v-149.94H825.65s-12.35-.8-12.35-13.561v-19.943s1.599-12.562 12.55-12.562h9.363V764.8h-7.564s-13.55.4-13.55-13.552v-19.543s-1.588-12.361 9.993-12.361h10.332v-94.162h-8.374s-12.75 0-12.75-10.762v-23.933s1.999-10.761 9.992-10.761h11.531v-92.522h-10.761s-9.993-.8-9.993-13.952v-18.753s1.6-11.561 11.551-11.561h9.993v-95.712h-11.551s-10.362 1.2-10.362-11.562v-20.343s0-12.361 10.761-12.361h11.991v-93.312h-11.59s-11.562-.4-11.562-12.002v-21.853s1.599-10.77 12.35-10.77h8.774V70.51h-9.563s-11.161.4-11.161-11.572V36.605s2.388-11.161 11.99-11.161h9.563v-92.522h-11.191S813.7-68.668 813.7-81.08v-18.302s.8-12.002 11.56-12.002h10.752v-93.712h-12.75s-10.362.4-10.362-13.161v-22.293s1.6-10.772 13.15-10.772h9.563v-92.912h-13.15s-9.563-3.59-9.563-14.362v-19.932S815.7-389.7 823.663-389.7h11.161v-82.55s-9.992 2-9.992-6.781v-68.589s0-7.18 10.752-7.18l.03-33.895z" class="map__ground" fill-rule="nonzero" transform="rotate(-90 1050 270)"/>
      <path d="M297 316.5c0 23.47-18.576 42.5-41.495 42.5C232.586 359 214 339.95 214 316.5s18.586-42.5 41.505-42.5C278.424 274 297 293.03 297 316.5zm-41.495-26.067c-10.514-.188-20.097 6.043-24.25 15.768-4.153 9.724-2.052 21.011 5.317 28.562 7.37 7.551 18.543 9.867 28.276 5.861 9.734-4.006 16.094-13.54 16.096-24.124.116-14.263-11.269-25.925-25.439-26.057v-.01z" class="map__feature" fill-rule="nonzero" transform="rotate(-90 255.5 316.5)"/>
      <path d="M1304.917 280.073v-7.62l63.296-8.305-.12 23.892-63.176-7.967zm-.11.911l39.02 5.57c-6.52 1.704-9.042 5.123-9.042 5.123l-30.785-4.32.808-6.373zm63.635 14.33l.798-6.144 5.383.575-.688 6.371-5.493-.802zm-2.293 1.14a21.312 21.312 0 0 0-14.306-7.056s-9.271-.565-14.954 4.548l-1.485-1.982c5.722-5.113 16.479-4.885 16.479-4.885 8.972.456 16.14 7.73 16.14 7.73l-1.874 1.644zm26.549 2.546v-3.19s14.884-1.477 21.175-11.377H1418s-6.41 13.497-25.302 14.567zm-87.89-28.034l-.808-6.362 30.785-4.33s2.523 3.418 9.043 5.123l-39.02 5.569zm63.634-14.33l5.493-.792.688 6.362-5.383.575-.798-6.144zm-2.293-1.139l1.874 1.596s-7.168 7.283-16.14 7.739c0 0-10.757.218-16.48-4.895l1.486-1.933c5.683 5.114 14.954 4.549 14.954 4.549a21.312 21.312 0 0 0 14.306-7.056zm26.549-2.497c18.892 1.02 25.302 14.557 25.302 14.557h-4.127c-6.291-9.9-21.175-11.376-21.175-11.376V253zM445 309v-8.398h77V309h-77zm0-12.602V288h77v8.398h-77z" class="map__feature" fill-rule="nonzero"/>
      <circle class="map__space" data-space="1.79" fill-rule="nonzero" transform="rotate(-90 691.5 252.5)" cx="691.5" cy="252.5" r="10.5"/>
      <path d="M968.206 301l-15.677-9.735c-18.84-12.413-17.509-31.369-17.509-31.369 2.832-27.524 26.343-31.047 26.343-31.047L976.711 226l2.16 10.903-10.504 2.355c-21.17 4.53-21.671 19.792-21.671 19.792-.838 7.768 2.223 15.445 8.164 20.477l19.85 11.235L968.206 301zm137.567 0l-6.503-10.238 19.84-11.235c5.941-5.032 9.005-12.708 8.174-20.477 0 0-.5-15.261-21.681-19.792l-10.505-2.355 2.171-10.903 15.367 2.849s23.512 3.523 26.343 31.047c0 0 1.34 18.956-17.508 31.37L1105.773 301z" class="map__feature" fill-rule="nonzero"/>
      <path class="map__space" data-space="1.78" fill-rule="nonzero" transform="rotate(-90 1636.5 286.5)" d="M1625 264h23v45h-23z"/>
      <path d="M630 371h157c-10.082-12.21-13.91-23.42-14-33H630v33z" class="map__space" data-space="1.77" fill-rule="nonzero" transform="rotate(-90 708.5 354.5)"/>
      <path class="map__space" data-space="1.76" fill-rule="nonzero" transform="rotate(-90 1507 315.5)" d="M1547.5 298.5l11 34h-103v-34z"/>
      <path class="map__space" data-space="1.75" fill-rule="nonzero" transform="rotate(-90 1544.5 345)" d="M1566.5 326.5h-44v37h44z"/>
      <path class="map__space" data-space="1.74" fill-rule="nonzero" transform="rotate(-90 1544.5 310)" d="M1555.5 291.5h-22v37h22z"/>
      <path class="map__space" data-space="1.73" fill-rule="nonzero" transform="rotate(-90 1544.5 274.5)" d="M1567 293l-11.74-37H1522v37z"/>
      <path class="map__space" data-space="1.72" fill-rule="nonzero" transform="rotate(-90 1526.5 390.5)" d="M1548 354h-43v73h43z"/>
      <path class="map__space" data-space="1.71" fill-rule="nonzero" transform="rotate(-90 605.5 176.5)" d="M692 227V126H519l33 101z"/>
      <path d="M762 126v68c.1.12.91.88 1 1h140v-69H762z" class="map__space" data-space="1.70" fill-rule="nonzero" transform="rotate(-90 832.5 160.5)"/>
      <path d="M1118.5 132.5c-5.123 11.053-11.378 21.745-18 32h119v-32h-101z" class="map__space" data-space="1.69" fill-rule="nonzero" transform="rotate(-90 1160 148.5)"/>
      <path d="M1411.5 186.5h-76c5.238 6.816 9.975 14.65 12 23h64v-23z" class="map__space" data-space="1.68" fill-rule="nonzero" transform="rotate(-90 1373.5 198)"/>
      <path d="M1370 227h84v-50h-64c1.03 4.253.911 8.637.541 12.992-1.376 18.528-15.097 32.257-20.541 37.008z" class="map__space" data-space="1.67" fill-rule="nonzero" transform="rotate(-90 1412 202)"/>
      <path class="map__space" data-space="1.66" fill-rule="nonzero" transform="rotate(-90 1790.5 439)" d="M1767.5 427.5h46v23h-46z"/>
      <path d="M1415 407v-96h-148v154h140c-.916-1.555-1.315-3.331-2-5-11.226-34.612 10-53 10-53z" class="map__space" data-space="1.65" fill-rule="nonzero" transform="rotate(-90 1341 388)"/>
      <path d="M720 455h163c12.565-21.702 23-35 23-35V283H720v172z" class="map__space" data-space="1.64" fill-rule="nonzero" transform="rotate(-90 813 369)"/>
      <path class="map__space" data-space="1.63" fill-rule="nonzero" transform="rotate(-90 1636.5 392.5)" d="M1656 370v45h-39v-45z"/>
      <path class="map__space" data-space="1.62" fill-rule="nonzero" transform="rotate(-90 1623.5 438)" d="M1647.5 473.5h-48v-71h48z"/>
      <path class="map__space" data-space="1.61" fill-rule="nonzero" transform="rotate(-90 1537.5 438)" d="M1561.5 390.5h-48v95h48z"/>
      <path d="M494.5 395.5h163l-4-10c-10.114-6.454-18.532-14.534-26-24h-133v34z" class="map__space" data-space="1.60" fill-rule="nonzero" transform="rotate(-90 576 378.5)"/>
      <path d="M193 279.382V433h-43v39c0 8.284-6.716 15-15 15H73c-8.284 0-15-6.716-15-15v-67h.076L59 63h134v39.695c12.245 8.35 28.662 13.999 43 17.305v128.99c-16.596 4.96-33.596 15.771-43 30.392z" class="map__space" data-space="1.59" fill-rule="nonzero"/>
      <path d="M335 419c-22.215-11.203-37.047-33.157-39.187-58H249v58h86z" class="map__space" data-space="1.58" fill-rule="nonzero" transform="rotate(-90 292 390)"/>
      <path d="M1312 292h69V33h-69v35h-76c-2 1-2 2.324-2 3v144h78v77z" class="map__space" data-space="1.57" fill-rule="nonzero" transform="rotate(-90 1307.5 162.5)"/>
      <path d="M554 387H446v34h112c-1.643-4.915-4.216-27.34-4-34z" class="map__space" data-space="1.56" fill-rule="nonzero" transform="rotate(-90 502 404)"/>
      <path d="M1087 123c-2.55 11.347-7.2 22.404-12 33h101v-33h-89z" class="map__space" data-space="1.55" fill-rule="nonzero" transform="rotate(-90 1125.5 139.5)"/>
      <path d="M1782.5 293.5c-4.062-1.829-9.062-5.829-15-12h-122v34h137v-22z" class="map__space" data-space="1.54" fill-rule="nonzero" transform="rotate(-90 1714 298.5)"/>
      <path d="M1603 143v3c25.097 9.138 32.73 25.171 35 38h18v-41h-53z" class="map__space" data-space="1.53" fill-rule="nonzero" transform="rotate(-90 1629.5 163.5)"/>
      <path d="M1231 180h-49.174A332.667 332.667 0 0 1 1158 213h73v-33z" class="map__space" data-space="1.52" fill-rule="nonzero" transform="rotate(-90 1194.5 196.5)"/>
      <path class="map__space" data-space="1.51" fill-rule="nonzero" transform="rotate(-90 1800.5 135.5)" d="M1754 158h93v-45h-93z"/>
      <path class="map__space" data-space="1.50" fill-rule="nonzero" transform="rotate(-90 1847.5 135.5)" d="M1801 113v45h93v-45z"/>
      <path d="M1707.5 144.5v-37h-65.753c.756 4.38 1.188 9.58.753 14-.452 8.907-3.56 15.804-9 23h74z" class="map__space" data-space="1.49" fill-rule="nonzero" transform="rotate(-90 1670.5 126)"/>
      <path d="M1681.5 116.5c-4.97 6.406-10.807 11.141-18 15v23h93v-38h-75z" class="map__space" data-space="1.48" fill-rule="nonzero" transform="rotate(-90 1710 135.5)"/>
      <path d="M904 123a233.258 233.258 0 0 1 11 33h88v-33h-99z" class="map__space" data-space="1.47" fill-rule="nonzero" transform="rotate(-90 953.5 139.5)"/>
      <path class="map__space" data-space="1.46" fill-rule="nonzero" transform="rotate(-90 1753.5 135.5)" d="M1707 158h93v-45h-93z"/>
      <path d="M855 160h70v33h47v-66H832c8.745 10.35 16.204 21.283 23 33z" class="map__space" data-space="1.45" fill-rule="nonzero" transform="rotate(-90 902 160)"/>
      <path d="M749.5 207.5v-34h-64c.321 16.215-11.154 29.5-15 34h79z" class="map__space" data-space="1.44" fill-rule="nonzero" transform="rotate(-90 710 190.5)"/>
      <path d="M953 157h-67c5.962 10.318 11.25 20.006 15.831 31H953v-31z" class="map__space" data-space="1.43" fill-rule="nonzero" transform="rotate(-90 919.5 172.5)"/>
      <path d="M619 176h125v-33H605c12.815 16.151 14 31 14 33z" class="map__space" data-space="1.42" fill-rule="nonzero" transform="rotate(-90 674.5 159.5)"/>
      <path class="map__space" data-space="1.41" fill-rule="nonzero" transform="rotate(-90 1545 178)" d="M1584 196v-36h-78l8.667 36z"/>
      <path class="map__space" data-space="1.40" fill-rule="nonzero" transform="rotate(-90 1545 113)" d="M1569 130.956V95h-48v36z"/>
      <path class="map__space" data-space="1.39" fill-rule="nonzero" transform="rotate(-90 1627.5 109.5)" d="M1607 91v37h41V91z"/>
      <path class="map__space" data-space="1.38" fill-rule="nonzero" transform="rotate(-90 1511.5 158)" d="M1444.5 144.5l8 27h128v-27h-138z"/>
      <path d="M1391.5 138.5c-1 0-1 0-2 1l19 56h137v-57h-154z" class="map__space" data-space="1.37" fill-rule="nonzero" transform="rotate(-90 1467.5 167)"/>
      <path class="map__space" data-space="1.36" fill-rule="nonzero" transform="rotate(-90 744.5 160.5)" d="M815 109h-59v36h-81l-1 1v66h141z"/>
      <path d="M335.48 224.5h-41.449c-5.383 17.88-17.406 32.939-33.531 42h75l-.02-42z" class="map__space" data-space="1.35" fill-rule="nonzero" transform="rotate(-90 298 245.5)"/>
      <path class="map__space" data-space="1.34" fill-rule="nonzero" transform="rotate(-90 385 256)" d="M408 236h-46l4.51 40H408z"/>
      <path class="map__space" data-space="1.33" fill-rule="nonzero" transform="rotate(-90 342 258.5)" d="M321.335 279.5H367.5v-42h-51z"/>
      <path class="map__space" data-space="1.32" fill-rule="nonzero" transform="rotate(-90 1636.5 336)" d="M1625.5 313.5h22v45h-22z"/>
      <path class="map__space" data-space="1.31" fill-rule="nonzero" transform="rotate(-90 1636.5 311.5)" d="M1625 289h23v45h-23z"/>
      <path d="M602 422V294l56-17.684V276l.234.242L659 276v1c3.612 3.48 14.637 12.769 31 13v137h-41v21l-5 4v8h-34v-7h-5v-13h-3v-18z" class="map__space" data-space="1.30" fill-rule="nonzero"/>
      <path class="map__space" data-space="1.29" fill-rule="nonzero" transform="rotate(-90 1744 346)" d="M1628 263v116h48v50h184v-94h-139v-72z"/>
      <path d="M1726.5 289.5c-.247 3.882.247 8.184 1 12 2.299 8.216 5.551 15.446 11 22h-121v-34h109z" class="map__space" data-space="1.28" fill-rule="nonzero" transform="rotate(-90 1678 306.5)"/>
      <path d="M1631.5 275.5c1.143-31.383 25-45 25-45h-40v45h15z" class="map__space" data-space="1.27" fill-rule="nonzero" transform="rotate(-90 1636.5 253)"/>
      <path class="map__space" data-space="1.26" fill-rule="nonzero" transform="rotate(-90 1815.5 439)" d="M1838.5 449.126V427.5h-46v23h45.99z"/>
      <path class="map__space" data-space="1.25" fill-rule="nonzero" transform="rotate(-90 1894.5 135.5)" d="M1848 158h93v-45h-93z"/>
      <path d="M452 145c-1 26-17 63-17 63h173v-63H452z" class="map__space" data-space="1.24" fill-rule="nonzero" transform="rotate(-90 521.5 176.5)"/>
      <path d="M391.5 149.5c0 20-1 25-4 41h160v-41h-156z" class="map__space" data-space="1.23" fill-rule="nonzero" transform="matrix(0 -1 -1 0 637.5 637.5)"/>
      <path d="M228 419c2.145-22.942 15.65-43.443 36-55h-83v55h47z" class="map__space" data-space="1.22" fill-rule="nonzero" transform="rotate(-90 222.5 391.5)"/>
      <path class="map__space" data-space="1.21" fill-rule="nonzero" transform="rotate(-90 1636.5 360)" d="M1625.5 337.5h22v45h-22z"/>
      <path d="M383.5 431.5h108c1.525-35.62 19.34-60.366 29-71h-146v6h9v65z" class="map__space" data-space="1.20" fill-rule="nonzero" transform="rotate(-90 447.5 396)"/>
      <path d="M1043 356H898v67h127c3-23.058 8.848-45.6 18-67z" class="map__space" data-space="1.19" fill-rule="nonzero" transform="rotate(-90 970.5 389.5)"/>
      <path class="map__space" data-space="1.18" fill-rule="nonzero" transform="rotate(-90 1237.5 388)" d="M1176.5 391.5v16h135v-39h-148v23z"/>
      <path class="map__space" data-space="1.17" fill-rule="nonzero" transform="rotate(-90 1182 388)" d="M1108 354h148v68h-148z"/>
      <path d="M837 364v34h146c4.898-11.663 9.74-23.017 16-34H837z" class="map__space" data-space="1.16" fill-rule="nonzero" transform="rotate(-90 918 381)"/>
      <path d="M1074 335.124V335c11.454-1.179 27.813-3.3 39-6v-1c12.08-3.13 23.545-7.129 33-13v147h-107V337c4 0 8.605-.25 11 0 2.344.245 8.723.01 24-1.876z" class="map__space" data-space="1.15" fill-rule="nonzero"/>
      <path class="map__space" data-space="1.14" d="M246 228h20v20h-20z"/>
      <path d="M1533 359c-13.192-4.103-23.914-12.106-31-24h-141v68h186l-14-44z" class="map__space" data-space="1.13" fill-rule="nonzero" transform="rotate(-90 1454 369)"/>
      <path d="M473 376v36h132c-8.446-10.81-14.71-22.988-19-36H473z" class="map__space" data-space="1.12" fill-rule="nonzero" transform="rotate(-90 539 394)"/>
      <path d="M445.5 392.5l-4-39h-111v44h111c1.56-1.694 2.273-3.306 4-4.83v-.17z" class="map__space" data-space="1.11" fill-rule="nonzero" transform="rotate(-90 388 375.5)"/>
      <path d="M1084 388c.25-2.062.48-2.992 1-5H958v31h125c-.667-6-.333-14.667 1-26z" class="map__space" data-space="1.10" fill-rule="nonzero" transform="rotate(-90 1021.5 398.5)"/>
      <path d="M399 398l-4-35c-6.31-.977-12.2-3.3-18-6h-89v41h111z" class="map__space" data-space="1.09" fill-rule="nonzero" transform="rotate(-90 343.5 377.5)"/>
      <path d="M277 206h44v25h84v-27h40V90h-40V63h-78v39c-11.41 6.46-20.076 10.793-26 13-5.924 2.207-13.924 3.874-24 5v86z" class="map__space" data-space="1.08"/>
      <path d="M407 206h38v45c-22 8-34.667 16-38 24v-69z" class="map__space" data-space="1.07"/>
      <path class="map__space" data-space="1.06" d="M1829 230h41v141h-41z"/>
      <path class="map__space" data-space="1.05" d="M1872 230h45v95h-45z"/>
      <path class="map__space" data-space="1.04" d="M1427 266h20v20h-20z"/>
      <path class="map__space" data-space="1.03" d="M972 90h20v20h-20z"/>
      <path class="map__space" data-space="1.02" d="M1087 89h20v20h-20z"/>
      <path class="map__space" data-space="1.01" d="M1030 309h20v20h-20z"/>
    </g>
  </g>
</svg>
