<svg xmlns="http://www.w3.org/2000/svg" viewBox="0 0 149 144"><defs/><path d="M77.697 58.048c7.559 0 13.687 6.129 13.687 13.686 0 7.559-6.128 13.687-13.687 13.687-7.557 0-13.686-6.128-13.686-13.687 0-7.557 6.129-13.686 13.686-13.686zM32.474 71.733l29.75 6.357a16.651 16.651 0 01-1.252-6.356l-28.498-.001zm90.448 0l-29.75-6.356a16.69 16.69 0 011.252 6.357l28.498-.001zm-45.225 45.224l6.356-29.749a16.655 16.655 0 01-6.356 1.253v28.496zm0-90.446l-6.355 29.75a16.671 16.671 0 016.355-1.25v-28.5zm0 36.183v3.037a6.002 6.002 0 00-6.002 6.003l-3.039-.001c0-4.991 4.048-9.039 9.041-9.039zm0 18.081v-3.038a6.005 6.005 0 006.003-6.003l3.036-.001c0 4.994-4.045 9.042-9.039 9.042zm6.725-51.881c18.558 2.89 33.222 17.558 36.116 36.116l3.164.677c-2.707-20.784-19.173-37.251-39.954-39.96l.674 3.167zm36.116 49.564c-2.894 18.56-17.558 33.226-36.116 36.117l-.674 3.165c20.781-2.704 37.247-19.173 39.954-39.958l-3.164.676zm-49.565 36.117c-18.56-2.891-33.225-17.557-36.115-36.117l-3.167-.676c2.707 20.784 19.172 37.254 39.959 39.959l-.677-3.166zM34.858 65.01c2.89-18.558 17.554-33.225 36.115-36.116l.677-3.167c-20.787 2.709-37.252 19.174-39.959 39.96l3.167-.677zM80.504 6.75h-.027L75.393 0h-3.048v9.678h2.546V2.929h.028l5.27 6.749h2.861V0h-2.546v6.75zm59.224 69.822h9.094v-1.843h-6.461v-2.221h6.08v-1.764h-6.08v-2.006h6.41v-1.843h-9.043v9.677zm-136.665 0h2.71l2.034-6.884h.028l2.031 6.884h2.712l3.062-9.677h-2.629l-1.869 7.047h-.029l-1.979-7.047H6.505l-1.978 7.047H4.5l-1.87-7.047H0l3.063 9.677zm79.491 60.284a3.077 3.077 0 00-.299-1.177 2.63 2.63 0 00-.662-.836 3.636 3.636 0 00-.918-.553 5.843 5.843 0 00-1.068-.32 8.379 8.379 0 00-1.115-.15 12.644 12.644 0 00-1.058-.04c-1.014-.003-1.881.101-2.593.308-.715.207-1.259.536-1.635.982-.38.448-.57 1.031-.574 1.746.004.393.066.734.185 1.019.118.287.285.529.499.726.21.196.457.36.735.487.283.129.579.234.903.312.32.079.649.145.988.195l2.398.365c.351.053.647.114.89.194.244.079.431.19.561.334.123.142.19.336.19.583-.003.281-.089.508-.264.687-.174.178-.416.31-.724.394a4.139 4.139 0 01-1.086.126 6.041 6.041 0 01-.694-.035 3.607 3.607 0 01-.668-.131 2.005 2.005 0 01-.571-.27 1.3 1.3 0 01-.4-.449 1.449 1.449 0 01-.16-.674h-2.956c.009.501.091.933.249 1.295.16.364.377.667.654.91.275.244.592.441.948.59.357.149.74.259 1.144.337.403.077.816.126 1.234.153.419.024.825.037 1.22.036.949-.001 1.748-.089 2.392-.255.647-.169 1.164-.399 1.551-.696.387-.297.663-.642.835-1.033.173-.393.255-.816.249-1.269-.003-.437-.08-.813-.237-1.128a2.128 2.128 0 00-.652-.78 3.486 3.486 0 00-.984-.507 7.395 7.395 0 00-1.227-.295l-3.295-.529a2.203 2.203 0 01-.588-.169.998.998 0 01-.386-.297.714.714 0 01-.137-.443.87.87 0 01.223-.583c.146-.17.351-.306.618-.406.27-.097.581-.145.947-.148.266-.003.537.01.803.04.268.028.517.09.748.185.229.091.419.232.576.42.158.187.255.437.3.75l2.911-.001zm54.913-65.123l-43.994 9.4 11.739 18.117-18.117-11.739-9.398 43.993-9.4-43.993L50.181 99.25l11.742-18.117-43.995-9.4 43.995-9.397-11.742-18.118 18.116 11.74 9.4-43.992 9.398 43.992 18.117-11.74-11.739 18.118 43.994 9.397z" fill="#342F80" fill-rule="evenodd"/></svg>